<svg xmlns="http://www.w3.org/2000/svg" width="48" height="45.366" viewBox="0 0 48 45.366">
  <g id="noun_thumbs_up_1218616" data-name="noun_thumbs up_1218616" transform="translate(946.4 -956.15)">
    <g id="Group_12" data-name="Group 12" transform="translate(-946.4 956.15)">
      <g id="Group_10" data-name="Group 10" transform="translate(14.196)">
        <path id="Path_6" data-name="Path 6" d="M-891.018,973.665a44.123,44.123,0,0,0-7.2.2c-1.158.1-1.611-1.516-1.359-3.993.352-4.3.856-7.329,1.208-9.806.7-4.448-5.587-5.206-6.946-1.769-1.309,3.286-4.933,14.911-11.929,18.146a2.3,2.3,0,0,0-1.309,2.123c0,3.791,0,13.193-.05,17.135a2.379,2.379,0,0,0,1.711,2.275c3.926,1.062,13.691,3.538,20.586,3.538,4.48,0,7.1-.354,8.053-4.549,1.007-4.4,2.265-10.868,3.221-15.872C-884.021,975.737-886.337,973.968-891.018,973.665Z" transform="translate(918.6 -956.15)" fill="#d5c5c8"/>
      </g>
      <g id="Group_11" data-name="Group 11" transform="translate(0 18.966)">
        <path id="Path_7" data-name="Path 7" d="M-935.83,994.2h-9.447a1.133,1.133,0,0,0-1.123,1.123v22.213a1.133,1.133,0,0,0,1.123,1.123h9.447a1.133,1.133,0,0,0,1.123-1.123V995.323A1.133,1.133,0,0,0-935.83,994.2Zm-4.749,20.834a2.071,2.071,0,0,1-2.094-2.094,2.071,2.071,0,0,1,2.094-2.094,2.071,2.071,0,0,1,2.094,2.094A2.071,2.071,0,0,1-940.579,1015.034Z" transform="translate(946.4 -994.2)" fill="#d5c5c8"/>
      </g>
    </g>
  </g>
</svg>
