<svg xmlns="http://www.w3.org/2000/svg" xmlns:xlink="http://www.w3.org/1999/xlink" width="98.748" height="94.974" viewBox="0 0 98.748 94.974">
  <defs>
    <clipPath id="clip-path">
      <rect width="98.748" height="94.974" fill="none"/>
    </clipPath>
  </defs>
  <g id="Logo" clip-path="url(#clip-path)">
    <g id="Group_5" data-name="Group 5" transform="translate(0 0)">
      <g id="Group_4" data-name="Group 4">
        <g id="Group_1" data-name="Group 1">
          <path id="Path_1" data-name="Path 1" d="M6.595,96.685h94.726a2.133,2.133,0,0,0,1.609-.894,1.623,1.623,0,0,0,0-1.787L81.482,51.288a1.743,1.743,0,0,0-3.217,0L76.3,56.114,54.673,8.572A1.966,1.966,0,0,0,52.886,7.5a1.717,1.717,0,0,0-1.609,1.251L44.664,32.343l-14.12-7.507a1.95,1.95,0,0,0-2.323.536L19.285,36.811c-.179.179-.179.357-.357.715L4.629,94.183a1.075,1.075,0,0,0-.179.715A2.266,2.266,0,0,0,6.595,96.685Zm91.867-3.575H8.918L22.5,38.777l7.864-10.009,14.656,7.864a1.709,1.709,0,0,0,1.609,0A1.89,1.89,0,0,0,47.7,35.382L53.6,14.47l21.09,47.006A1.718,1.718,0,0,0,76.3,62.548a1.563,1.563,0,0,0,1.609-1.072l2.145-5Z" transform="translate(-4.45 -7.5)" fill="#89937c"/>
        </g>
        <g id="Group_2" data-name="Group 2" transform="translate(48.078 3.182)">
          <path id="Path_2" data-name="Path 2" d="M36.053,67.045h.536a1.611,1.611,0,0,0,1.072-1.072l4.826-13.047a1.958,1.958,0,0,0,0-1.43L23.9,10.388a2.038,2.038,0,0,0-2.145-1.072,1.882,1.882,0,0,0-1.43,1.787l3.217,47.006a2.206,2.206,0,0,0,.715,1.43l10.724,7.149A2.54,2.54,0,0,0,36.053,67.045Zm2.86-14.834L35.16,62.4l-8.043-5.362-2.323-36.1Z" transform="translate(-20.325 -9.281)" fill="#89937c"/>
        </g>
        <g id="Group_3" data-name="Group 3" transform="translate(19.054 17.158)">
          <path id="Path_3" data-name="Path 3" d="M51.017,75.187h0A1.65,1.65,0,0,0,52.8,73.578l1.609-30.563,4.468,3.038a1.936,1.936,0,0,0,1.966,0,1.984,1.984,0,0,0,.715-1.966L56.737,26.751a1.83,1.83,0,0,0-.894-1.072l-15.728-8.4a1.95,1.95,0,0,0-2.323.536L33.5,23.355a1.625,1.625,0,0,0-.179,1.966L43.868,42.837l5.362,30.92A1.74,1.74,0,0,0,51.017,75.187ZM52.8,38.011c-.357,0-.536,0-.715.179a2.779,2.779,0,0,0-1.072,1.43l-.894,17.694L47.443,41.943c0-.179-.179-.357-.179-.536L37.255,24.785l2.681-3.4L53.7,28.717l3.4,11.975-3.217-2.145A1.545,1.545,0,0,0,52.8,38.011Z" transform="translate(-33.074 -17.1)" fill="#89937c"/>
        </g>
      </g>
    </g>
  </g>
</svg>
