<svg xmlns="http://www.w3.org/2000/svg" width="48" height="45.415" viewBox="0 0 48 45.415">
  <g id="noun_client_2620662" transform="translate(-5 -7.423)">
    <path id="Path_8" data-name="Path 8" d="M41,50.668c0,2.893-24,2.893-24,0,0-5.237,1.716-9.794,5.407-12.186a8.652,8.652,0,0,0,13.186,0C39.284,40.874,41,45.431,41,50.668Zm0-29.725a6.76,6.76,0,1,0-6.76-6.76A6.76,6.76,0,0,0,41,20.944Zm6.593-1.129a8.652,8.652,0,0,1-13.186,0,10.776,10.776,0,0,0-3.846,4.5,8.6,8.6,0,0,1,7.021,9.771C44.471,34.422,53,33.725,53,32c0-5.237-1.716-9.794-5.407-12.186ZM17,20.944a6.76,6.76,0,1,0-6.76-6.76A6.76,6.76,0,0,0,17,20.944ZM20.419,34.09a8.6,8.6,0,0,1,7.021-9.771,10.776,10.776,0,0,0-3.846-4.5,8.652,8.652,0,0,1-13.186,0C6.716,22.206,5,26.763,5,32c0,1.725,8.529,2.421,15.419,2.09Zm8.581-8a6.76,6.76,0,1,0,6.76,6.76A6.76,6.76,0,0,0,29,26.091Z" transform="translate(0 0)" fill="#d5c5c8"/>
  </g>
</svg>
