<svg xmlns="http://www.w3.org/2000/svg" width="48" height="48" viewBox="0 0 48 48">
  <g id="noun_Twitter_23267" transform="translate(-17 -176.375)">
    <path id="Path_5" data-name="Path 5" d="M41,176.375a24,24,0,1,0,24,24A24,24,0,0,0,41,176.375Zm12.26,15.618c.035-.04.066-.093.115-.1l-.082.154c.037.062.074.123.109.186,1.312.254,2.285.582,2.285.795,0,.168-.6.494-1.479.844a16.312,16.312,0,0,1,.894,2.913,13.279,13.279,0,0,1-.729,8.378A14.386,14.386,0,0,1,27.2,206.2a14.259,14.259,0,0,0,13.6,1.885,12.163,12.163,0,0,1-5.195-.756c-5.775-2.188-6.85-9.1-6.85-9.1-.43-2.762.19-2.95,1.377-.42a10.172,10.172,0,0,0,5.538,4.561c.109.042.221.069.332.1-.07-.033-.143-.062-.213-.1-5.448-2.9-5.633-9.9-5.633-9.9-.074-2.793.565-2.9,1.42-.242a10.166,10.166,0,0,0,4.91,5.23,12.188,12.188,0,0,0,6.137,1.431c-.965-5.371.858-10.192,4.192-10.888a5.148,5.148,0,0,1,4.426,1.476,4.81,4.81,0,0,1,1.3.021c1.731.26,3.149.686,3.149.945,0,.232-1.131.764-2.6,1.246C53.143,191.807,53.2,191.9,53.26,191.993Z" fill="#d5c5c8"/>
  </g>
</svg>
